<?xml version="1.0" encoding="UTF-8"?>
<svg version="1.1" viewBox="0 0 1016 1600" width="1280" height="1280" xmlns="http://www.w3.org/2000/svg">
<path transform="translate(537,314)" d="m0 0h2c-0.109 12.6-0.222 25.1-0.339 37.7-0.0542 5.84-0.107 11.7-0.158 17.5-0.26 29.9-0.701 59.9-1.5 89.8 13.1-0.109 26.2-0.221 39.3-0.339 6.08-0.0547 12.2-0.108 18.2-0.158 36.7-0.197 36.7-0.197 73.5-1.5 0.949-0.0507 1.9-0.101 2.88-0.154 6.46-0.356 12.9-0.773 19.4-1.22 0.942-0.0644 1.88-0.129 2.86-0.195 13.3-0.918 26.5-2.08 39.7-4.11 2.05-0.306 4.1-0.57 6.16-0.815 31.5-2.78 31.5-2.78 59-14.5 2-0.0408 4-0.0425 6 0 0.471 0.953 0.941 1.91 1.43 2.89 0.629 1.27 1.26 2.53 1.89 3.8 0.309 0.626 0.617 1.25 0.936 1.9 2.36 4.75 4.9 9.2 7.94 13.5 1.81 2.88 1.81 2.88 1.81 5.88h2c0.519 0.929 1.04 1.86 1.57 2.82 4.24 7.7 4.24 7.7 9.11 15 1.81 2.49 3.24 4.81 4.69 7.5 2.37 4.42 5.19 8.4 8.17 12.4 1.38 2.15 2.02 3.76 2.45 6.26h2c1.48 2.05 1.48 2.05 3.19 4.88 2.99 4.86 6.17 9.52 9.53 14.1 1.29 2 1.29 2 1.29 4h2c1.07 1.54 2.05 3.14 3 4.75 4.08 6.61 8.97 12.3 14 18.2 1.35 1.64 2.68 3.28 4 4.94 0.536 0.669 1.07 1.34 1.62 2.03 1.38 2.04 1.38 2.04 2.38 4.73 0.33 0.762 0.66 1.52 1 2.31 0.99 0.33 1.98 0.66 3 1 1.76 1.97 1.76 1.97 3.69 4.5 3.33 4.29 6.8 8.38 10.4 12.4 1.67 1.87 3.27 3.78 4.87 5.71 2.76 3.25 5.86 5.97 9.1 8.74 2.45 2.11 4.72 4.25 6.9 6.64v2c-4.74-1.44-8.99-3.37-13.4-5.62-0.641-0.325-1.28-0.65-1.94-0.984-1.56-0.793-3.12-1.59-4.68-2.39v-2c-0.883-0.263-1.77-0.526-2.68-0.797-3.24-1.17-5.66-2.54-8.51-4.45-3.6-2.36-7.2-4.55-11-6.56-5.51-2.94-10.8-6.24-16-9.58-3.5-2.21-7-4.34-10.7-6.3-3.97-2.15-7.59-4.67-11.3-7.3-3.37-2.38-6.8-4.67-10.2-6.95-0.645-0.429-1.29-0.858-1.95-1.3-2.93-1.95-5.87-3.89-8.81-5.83-10.8-7.15-21.3-14.8-31.8-22.4-2.03-1.52-2.03-1.52-4.11-2.5v-2c-0.701-0.247-1.4-0.495-2.12-0.75-5.65-2.46-9.57-5.95-13.9-10.2-2.38-1.85-4.78-3.66-7.21-5.45-0.592-0.512-1.18-1.02-1.79-1.55v-2c-0.784-0.289-1.57-0.578-2.38-0.875-2.62-1.12-2.62-1.12-4.62-3.12-1.93-0.354-1.93-0.354-4.16-0.379-0.864-0.0335-1.73-0.067-2.62-0.102-1.41-0.0406-1.41-0.0406-2.85-0.082-0.975-0.0361-1.95-0.0722-2.95-0.109-2.09-0.077-4.18-0.15-6.27-0.219-5.44-0.181-10.9-0.394-16.3-0.609-1.06-0.0413-2.11-0.0827-3.2-0.125-7.04-0.285-14.1-0.696-21.1-1.37-10.6-1.02-21.1-1.51-31.8-2-21.3-0.991-21.3-0.991-31.4-2.06-42.8-5.85-42.8-5.85-82.6 5.69-1.86 1.37-1.86 1.37-3.86 1.37v2h-2c-3.98 7.77-6.54 15.4-8 24 0.805-0.0707 1.61-0.141 2.44-0.214 11.1-0.866 22.2-0.938 33.3-0.916 3.17 0.00536 6.34 2.66e-5 9.5-0.00635 15.2-0.00663 30.3 0.174 45.3 2.95 0.975 0.175 1.95 0.35 2.95 0.531 10.5 1.95 20.6 4.3 30.5 8.66 2.14 0.899 4.29 1.79 6.44 2.69 1.05 0.437 2.1 0.874 3.18 1.32 0.785 0.326 1.57 0.652 2.38 0.988v2c0.804 0.206 1.61 0.413 2.44 0.625 10.9 4.19 19.7 13.1 27.6 21.4 0.603 0.632 1.21 1.26 1.83 1.91 8.04 8.69 13.6 18.2 18.2 29.1 0.522 1.18 0.522 1.18 1.05 2.39 12.8 29.9 16.9 72.1 6.27 103-4.44 11-9.89 21-17.3 30.3-0.684 0.877-1.37 1.75-2.07 2.66-2.36 2.87-5 5.09-7.93 7.34-0.772 0.61-1.54 1.22-2.34 1.85-33.4 25.5-82 29.1-123 24.5-4.4-0.603-8.73-1.37-13.1-2.32v3c0.579 0.263 1.16 0.526 1.75 0.797 6.24 3.34 10.8 8.84 15.2 14.2 1.11 0.979 2.23 1.94 3.38 2.88 2.43 2.01 4.5 4.06 6.52 6.48 5.5 6.37 11.5 12.2 17.5 18.2 1.3 1.3 2.6 2.6 3.9 3.9 2.71 2.71 5.42 5.42 8.13 8.13 3.47 3.46 6.93 6.92 10.4 10.4 2.68 2.68 5.35 5.36 8.03 8.03 1.28 1.28 2.55 2.55 3.83 3.83 1.78 1.79 3.57 3.57 5.36 5.35 0.519 0.521 1.04 1.04 1.57 1.58 3.32 3.3 6.8 6.3 10.4 9.28 1.67 1.67 3.33 3.33 5 5 1.16 1.01 2.33 2.01 3.5 3 3 2.54 5.84 5.1 8.5 8v2c0.818 0.338 0.818 0.338 1.65 0.684 3.05 1.71 5.4 3.99 7.91 6.38 4.82 4.52 9.79 8.76 15 12.9 2.65 2.22 5.03 4.62 7.47 7.07 1.71 1.46 3.44 2.9 5.19 4.31 0.963 0.78 1.93 1.56 2.92 2.36 3.46 2.78 6.93 5.56 10.4 8.32 2.48 1.99 4.92 4.03 7.37 6.07 5.33 4.37 10.8 8.54 16.3 12.7 0.844 0.638 1.69 1.28 2.56 1.93 4.49 3.36 8.99 6.49 13.9 9.28 0.464 0.341 0.927 0.683 1.41 1.03v2c0.681 0.248 1.36 0.495 2.06 0.75 3.51 1.49 6.65 3.32 9.94 5.25v2c0.784 0.186 1.57 0.371 2.38 0.562 4.18 1.66 7.3 3.95 10.9 6.57 3.42 2.36 6.99 4.29 10.7 6.21 2.62 1.43 5.14 2.93 7.68 4.49 5.36 3.23 10.9 5.99 16.5 8.66 1 0.476 2 0.953 3.03 1.44 6.82 3.21 13.7 6.17 20.7 8.84 3.06 1.22 3.06 1.22 6.04 2.74 3.19 1.56 6.3 2.6 9.7 3.6 1.12 0.333 2.24 0.665 3.39 1.01 0.966 0.286 1.93 0.572 2.93 0.867 0.99 0.33 1.98 0.66 3 1v2c-23.5-1.16-46.9-2.65-70.4-4.5-3.56-0.278-7.11-0.54-10.7-0.752-7.71-0.461-15.3-1.2-22.9-2.5-1.03-0.173-2.05-0.345-3.11-0.523-8.63-1.53-16.7-3.87-25-6.73-1.81-0.53-3.62-1.05-5.44-1.56-15.2-4.58-29.7-13.3-42.6-22.4-0.922-0.647-1.84-1.29-2.79-1.96-9.46-6.75-18.3-14.1-26.9-22-2.1-1.9-4.25-3.71-6.43-5.52-0.949-0.846-1.9-1.69-2.88-2.56v-2c-1.32-0.66-2.64-1.32-4-2v-2c-0.639-0.268-1.28-0.536-1.94-0.812-2.06-1.19-2.06-1.19-3.06-4.19-0.99-0.33-1.98-0.66-3-1-1.2-1.39-2.4-2.78-3.52-4.23-2.01-2.41-4.25-4.55-6.48-6.77-10.6-11.1-10.6-11.1-13.9-15.9-2.14-3.08-4.47-5.42-7.12-8.06-5.34-6.18-10.3-12.7-15.3-19.1-2.78-3.64-5.64-7.2-8.56-10.7-9.19-11.2-9.19-11.2-9.19-14.1-0.99-0.33-1.98-0.66-3-1-1.62-2.05-3.1-4.09-4.56-6.25-0.899-1.29-1.8-2.58-2.7-3.88-0.457-0.654-0.914-1.31-1.38-1.98-1.98-2.78-4.06-5.46-6.16-8.14-4.2-5.41-8.28-10.9-12.3-16.4-0.581-0.791-1.16-1.58-1.76-2.4-0.803-1.11-0.803-1.11-1.62-2.24-0.481-0.661-0.962-1.32-1.46-2-1.03-1.67-1.03-1.67-1.03-3.67h-2c-0.972-1.41-1.94-2.82-2.85-4.27-1.84-2.78-3.95-5.23-6.15-7.73h-1c-0.0917 35.5-0.162 71-0.204 106-5e-3 4.2-0.0102 8.4-0.0155 12.6-0.00105 0.836-0.0021 1.67-0.00318 2.53-0.0174 13.5-0.0489 27-0.0857 40.5-0.0375 13.9-0.0596 27.7-0.0677 41.6-0.00547 8.55-0.0227 17.1-0.0553 25.6-0.0213 5.87-0.0275 11.7-0.0223 17.6 0.00254 3.38-0.00337 6.76-0.0228 10.1-0.117 21.5 1.67 39 12.5 57.9 0.33 0.587 0.661 1.17 1 1.78 11.6 20.4 28.7 37.1 48 50.2 1.08 0.737 2.15 1.47 3.26 2.23 8.76 5.67 18.1 9.79 27.7 13.8 0.989 0.412 1.98 0.825 3 1.25 13.5 5.26 27.5 7.29 41.9 8.71 1.04 0.108 2.08 0.216 3.15 0.328 0.934 0.0898 1.87 0.18 2.83 0.272 0.706 0.145 1.41 0.29 2.14 0.439 0.33 0.66 0.66 1.32 1 2-6.73 3.64-13.6 6.4-20.8 8.89-1.87 0.652-3.73 1.34-5.55 2.13-33.2 12.3-75.3 9.48-108-1.89-3.31-1.51-3.31-1.51-5.5-0.125-1.01 1.98-1.01 1.98-1.92 4.43-0.364 0.932-0.728 1.86-1.1 2.82-0.385 1.01-0.77 2.02-1.17 3.06-0.4 1.04-0.8 2.07-1.21 3.14-3.46 9.02-6.68 18.1-9.81 27.3-3.71 10.8-7.57 21.5-11.4 32.2-0.372 1.04-0.745 2.08-1.13 3.16-2.03 5.65-4.15 11.2-6.45 16.8-1 2.67-1.5 5.29-1.79 8.12h-2c-0.135 0.559-0.271 1.12-0.41 1.7-1.76 6.54-4.47 12.3-7.57 18.3-2.31 4.47-4.4 9.04-6.52 13.6-3.08 6.6-6.37 12.9-10.2 19.1-1.44 2.29-1.44 2.29-2.31 5.25-0.66 0.33-1.32 0.66-2 1-1.38 2.32-2.71 4.63-4 7-1.63 2.94-1.63 2.94-3 5h-2c-0.248 0.701-0.495 1.4-0.75 2.12-1.42 3.27-3.12 6.02-5.25 8.88h-2c-0.0619 0.557-0.124 1.11-0.188 1.69-1.15 3.28-3.32 4.9-5.81 7.31-0.9 0.923-1.8 1.85-2.73 2.8-18.4 18.8-38.2 30.8-63.3 38.2-1.11 0.357-2.22 0.714-3.36 1.08-7.93 2-16.1 2.12-24.2 2.17-0.881 0.0206-1.76 0.0412-2.67 0.0625-6.15 0.0363-11.1-1.07-16.8-3.31-1.7-0.588-1.7-0.588-3.44-1.19-11.7-5.98-20-15.5-24.6-27.8-0.433-1.13-0.866-2.27-1.31-3.44-1.97-10.2 1.2-21.5 6.44-30.2 5.72-8.41 12.4-13.8 21.9-17.3 0.744-0.356 1.49-0.712 2.25-1.08 8.11-2.72 19.6-2.09 27.3 1.61 6.99 4.26 13.5 8.85 18.4 15.5 0.565 0.732 1.13 1.46 1.71 2.22 4.76 6.53 8.12 13.4 11.3 20.8 3.77-1.3 6.13-2.76 8.92-5.59 0.697-0.702 1.39-1.4 2.11-2.13 0.712-0.733 1.42-1.47 2.16-2.22 1.09-1.09 1.09-1.09 2.19-2.21 2.82-2.87 5.38-5.5 7.62-8.85h2c0.275-0.741 0.549-1.48 0.832-2.25 1.08-2.56 2.27-4.56 3.86-6.82 11.5-17 18.3-35.1 23.3-54.9 0.361-1.38 0.723-2.77 1.09-4.15 3.52-13.6 6.16-27.3 7.79-41.3 0.245-2.09 0.5-4.19 0.756-6.28 1.68-14 2.49-28.1 2.92-42.2 0.021-0.696 0.042-1.39 0.0636-2.11 0.524-17.8 0.517-35.6 0.497-53.5-0.0044-4.86-0.00285-9.72-0.0021-14.6 5.19e-4 -8.38-0.00256-16.8-0.00824-25.1-0.0082-12.1-0.0107-24.2-0.012-36.3-0.00218-19.7-0.0088-39.3-0.0183-59-0.00921-19.1-0.0163-38.2-0.0205-57.2-2.63e-4 -1.18-5.25e-4 -2.36-7.96e-4 -3.58-0.00131-5.92-0.00257-11.8-0.00381-17.8-0.0103-49-0.0279-97.9-0.0503-147-3.02 2.01-3.57 2.68-5.12 5.75-5.26 9.83-11.7 19.1-17.9 28.3-1.35 2.02-2.7 4.05-4.04 6.08-3.36 5.09-6.77 10.1-10.5 14.9-2.21 2.99-4.17 6.13-6.15 9.27-0.428 0.557-0.856 1.11-1.3 1.69h-2c-0.0619 0.557-0.124 1.11-0.188 1.69-0.933 2.65-2.36 3.84-4.34 5.76-3.49 3.69-6.31 7.99-9.28 12.1-0.769 1.05-0.769 1.05-1.55 2.12-0.46 0.638-0.921 1.28-1.4 1.93-0.412 0.459-0.825 0.917-1.25 1.39h-2v3c-1.09 1.16-2.19 2.3-3.35 3.39-1.94 1.89-3.73 3.89-5.53 5.92-4.23 4.73-8.54 9.37-12.9 14-0.957 1.02-0.957 1.02-1.93 2.07-1.77 1.88-3.54 3.75-5.32 5.62-0.493 0.525-0.986 1.05-1.49 1.59-1.13 1.18-2.31 2.3-3.51 3.41h-2v2c-1.29 1.3-1.29 1.3-3.19 2.88-4.51 3.83-8.84 7.82-13.2 11.9-8.88 8.26-8.88 8.26-11.7 8.26-0.33 0.99-0.66 1.98-1 3-1.96 1.39-3.97 2.71-6 4-2.1 1.59-4.18 3.19-6.25 4.81-5.47 4.24-11 8.3-16.8 12.2-0.549 0.376-1.1 0.752-1.66 1.14-8.31 5.69-16.7 11-25.5 15.8-1.9 1.07-3.78 2.16-5.65 3.27-9.41 5.5-19 9.82-29.2 13.8-0.877 0.388-1.75 0.776-2.66 1.18-2.68 0.942-4.82 1.09-7.66 1.07l-2.68 0.0156c-7.33-0.646-14.3-3.25-21.3-5.58-1.39-0.465-1.39-0.465-2.81-0.939-7.48-2.53-14.7-5.41-21.9-8.65-5.38-2.41-10.8-4.71-16.2-6.98-7.66-3.21-15.2-6.58-22.8-10.1-1.38-0.646-2.77-1.29-4.15-1.94-22.6-10.5-22.6-10.5-27.8-14.1v-2c0.619 0.0105 1.24 0.0209 1.88 0.0317 58.7 0.841 120-3.32 169-40 0.874-0.623 1.75-1.25 2.65-1.89 9.35-6.66 18.2-13.9 26.6-21.7 1.78-1.43 1.78-1.43 3.78-1.43 0.33-0.99 0.66-1.98 1-3 1.45-1.22 2.91-2.44 4.4-3.62 1.99-1.72 3.55-3.72 5.18-5.77 2.28-2.59 4.95-4.72 7.57-6.95 2.24-2.01 3.97-4.3 5.84-6.66 1.09-0.956 2.19-1.89 3.31-2.81 3.26-2.72 5.98-5.67 8.72-8.9 3.19-3.71 6.52-7.28 9.83-10.9 2.24-2.42 2.24-2.42 4.14-5.42h2c0.402-0.866 0.402-0.866 0.812-1.75 1.22-2.31 2.49-4.27 4.19-6.25h2c0.369-0.849 0.369-0.849 0.746-1.71 1.47-2.68 3.23-4.62 5.32-6.85 6.71-7.33 13-14.9 18.7-23.1 0.393-0.45 0.786-0.9 1.19-1.36h2c0.22-0.529 0.441-1.06 0.668-1.6 1.81-3.27 4.21-5.96 6.64-8.77 1.43-1.66 2.85-3.32 4.28-4.99 0.944-1.1 1.89-2.19 2.84-3.28 2.11-2.45 3.53-4.25 4.56-7.35-0.805 0.0105-1.61 0.0209-2.44 0.0317-3.06 0.0346-6.12 0.0594-9.18 0.0781-1.95 0.0147-3.89 0.0401-5.84 0.0659-8.7 0.0444-17-0.727-25.5-2.18-1.41-0.214-2.82-0.427-4.23-0.641-21.2-3.67-41.9-11.6-59.9-23.2-1.82-1.16-1.82-1.16-3.87-2.07-2.08-1.11-3.33-2.35-4.96-4.04-1.83-1.32-3.7-2.57-5.57-3.82-0.471-0.391-0.941-0.781-1.43-1.18v-2c-0.587-0.264-1.17-0.529-1.78-0.801-16.1-8.71-27.3-32.6-32.4-49.3-0.266-0.947-0.531-1.89-0.805-2.87-0.286-1.02-0.572-2.04-0.867-3.09-2.77-10.4-3.31-20.4-3.32-31.2-0.0122-1.14-0.0245-2.28-0.0371-3.45-0.0441-25.9 7.73-52.7 25.2-72.3 1.93-1.8 3.91-3.38 6-5 0.578-0.598 1.15-1.2 1.75-1.81 1.25-1.19 1.25-1.19 3.25-1.19 0.33-0.99 0.66-1.98 1-3 2.16-1.55 4.27-2.91 6.56-4.25 1.01-0.592 1.01-0.592 2.03-1.2 45.7-26.3 104-25.4 155-24.6-0.142-2.35-0.289-4.71-0.438-7.06-0.0812-1.31-0.162-2.62-0.246-3.97-0.295-3.7-0.749-7.3-1.32-11h-2c-0.371-0.701-0.742-1.4-1.12-2.12-4.64-7.11-11.3-9.72-19.2-12.1-12-2.51-24.3-1.96-36.5-1.95-1.55 4.08e-4 -1.55 4.08e-4 -3.14 8.24e-4 -29.5 0.0354-58.6 1.82-87.9 4.97-2.15 0.23-4.3 0.456-6.45 0.681-10.9 1.14-21.7 2.32-32.6 3.54-0.792 0.0883-1.58 0.177-2.4 0.268-4.71 0.526-9.42 1.06-14.1 1.6-1.46 0.168-2.92 0.334-4.38 0.499-14.9 1.18-14.9 1.18-28 7.57-0.905 0.69-1.81 1.38-2.74 2.09-2.34 1.86-2.34 1.86-4.08 3.73-1.3 1.25-1.3 1.25-3.3 1.25v2c-2.03 1.75-4.06 3.38-6.19 5-0.626 0.484-1.25 0.968-1.9 1.47-1.97 1.52-3.94 3.03-5.91 4.53-1.83 1.4-3.66 2.8-5.49 4.2-1.62 1.24-3.24 2.47-4.87 3.71-2.53 1.9-2.53 1.9-4.07 3.62-1.99 1.86-4.24 3.07-6.61 4.38-2.01 1.11-3.98 2.28-5.94 3.46-8.18 4.88-16.4 9.61-25 13.6-0.653 0.316-1.31 0.632-1.98 0.957-5.67 2.66-11.3 4.34-17.4 5.73-0.917 0.214-1.83 0.428-2.78 0.649-6.25 1.42-12.4 2.5-18.8 2.66v-2c1.51-1.33 3.09-2.59 4.69-3.81 3.72-2.85 7.04-5.83 10.3-9.19 1.05-1.05 2.1-2.11 3.16-3.16l6.69-6.69c0.532-0.533 1.06-1.07 1.61-1.62 1.44-1.44 2.88-2.86 4.33-4.29 2.26-2.21 2.26-2.21 4.15-4.75 2.06-2.5 2.06-2.5 4.81-4.69 3.55-2.86 6.15-6.32 8.94-9.91 2.08-2.62 4.24-5.13 6.44-7.64 17.7-20.2 39-46.2 46.1-72.6 0.255-0.566 0.51-1.13 0.773-1.71 3.69-1.23 5.61-0.68 9.41 0.0742 0.638 0.124 1.28 0.248 1.93 0.375 1.38 0.267 2.75 0.538 4.13 0.811 3.64 0.722 7.28 1.42 10.9 2.11 0.733 0.141 1.47 0.281 2.22 0.426 9.51 1.81 19.1 3.3 28.6 4.77 2.61 0.407 5.21 0.833 7.81 1.27 8.92 1.48 17.8 2.66 26.8 3.43 4.21 0.373 8.3 0.926 12.4 1.73 5.91 1.12 11.8 1.6 17.8 2 6.23 0.433 12.4 0.922 18.6 1.7 11.7 1.46 23.3 2.23 35.1 2.92 1.09 0.0657 2.17 0.131 3.29 0.199 14.4 0.86 28.9 1.46 43.3 1.43 0.727-8.66e-4 1.45-0.00173 2.2-0.00262 13.9 0.293 13.9 0.293 27.4-2.25 0.0103-0.987 0.0206-1.97 0.0312-2.99 0.0976-9.29 0.2-18.6 0.308-27.9 0.0553-4.77 0.109-9.55 0.158-14.3 0.0476-4.6 0.0999-9.21 0.156-13.8 0.0205-1.76 0.0392-3.52 0.0561-5.28 0.024-2.46 0.054-4.91 0.0856-7.37 0.00576-0.735 0.0115-1.47 0.0174-2.23 0.0738-5.02 0.0738-5.02 1.19-6.14 1.94-0.135 3.87-0.232 5.81-0.312 14.8-1.08 26.7-7.29 36.6-18.2 1.56-1.5 1.56-1.5 3.56-1.5v-3h2c0.33-1.32 0.66-2.64 1-4h2c0.26-0.723 0.521-1.45 0.789-2.19 1.25-2.9 2.74-5.19 4.59-7.75 0.619-0.866 1.24-1.73 1.88-2.62 0.577-0.804 1.15-1.61 1.75-2.44 2.06-2.95 3.85-5.55 5-9h2c0.34-1.24 0.34-1.24 0.688-2.5 1.56-4.17 3.54-8 6.31-11.5zm1 234c-0.179 2.65-0.241 5.19-0.209 7.83 0.00167 0.806 0.00334 1.61 0.00506 2.44 0.0081 2.71 0.0306 5.42 0.0531 8.13 0.00879 1.94 0.0167 3.88 0.0238 5.82 0.0219 5.27 0.0565 10.5 0.0935 15.8 0.0369 5.51 0.0631 11 0.0907 16.5 0.048 9.25 0.104 18.5 0.165 27.8 0.0703 10.7 0.13 21.4 0.184 32.1 0.0572 11.4 0.122 22.8 0.189 34.2 0.0189 3.29 0.0363 6.58 0.0535 9.87 0.0273 5.16 0.0596 10.3 0.096 15.5 0.0126 1.9 0.0235 3.8 0.0326 5.7 0.0127 2.58 0.0314 5.16 0.0518 7.74 0.00234 0.762 0.00468 1.52 0.0071 2.31-0.271 3.42-0.271 3.42 1.16 6.27 2.66 0.136 5.28 0.19 7.94 0.188 1.28-0.00121 1.28-0.00121 2.59-0.00244 9.05-0.0794 18.1-0.553 27.1-1.06 0.735-0.0392 1.47-0.0784 2.23-0.119 8.18-0.444 16.2-1.06 24.1-3.01 1.17-0.26 2.34-0.521 3.55-0.789 18.3-4.77 33.2-15.8 43.5-31.7 9.14-15.8 12.1-35 12.1-52.9 0.0057-1.09 0.0114-2.17 0.0173-3.3 0.00941-2.29 0.016-4.59 0.0198-6.88 0.00968-3.47 0.0407-6.94 0.0723-10.4 0.054-11.4-0.0691-22-3.31-33-0.254-0.945-0.508-1.89-0.77-2.86-2.74-10-7.34-19.6-13.2-28.1h-2c-0.247-0.578-0.495-1.16-0.75-1.75-1.43-2.58-3.03-4.31-5.25-6.25h-2l-1-3c-2.02-0.733-2.02-0.733-4-1v-2c-21.1-11.2-41.8-13.5-65.5-13.4-3.21 0.0164-6.41-1.26e-4 -9.61-0.019-2.04 0.00198-4.09 0.00581-6.13 0.0117-0.955-0.00607-1.91-0.0121-2.89-0.0184-0.876 0.00946-1.75 0.0189-2.66 0.0287-1.16 0.00358-1.16 0.00358-2.33 0.00723-2.3 0.232-2.3 0.232-3.89 3.38zm-84 0.0442c-36.2-0.295-36.2-0.295-71 7.96-0.998 0.397-2 0.794-3.02 1.2-15.1 6.74-24.9 18.7-30.9 33.8-5.59 15.1-6.47 30-6.41 46 0.00149 0.859 0.00298 1.72 0.00452 2.6 0.0404 13 0.457 25.6 3.31 38.3 0.255 1.18 0.51 2.36 0.773 3.57 3.24 12.3 10.5 26 20.2 34.4h2c0.33 0.99 0.66 1.98 1 3 4.7 3.74 9.56 6.49 15 9 0.723 0.34 1.45 0.681 2.19 1.03 9.15 4.2 18 6.58 28 8.09 1.12 0.172 2.23 0.344 3.38 0.521 16.4 2.45 31.6 2.35 48.4 2.35v-191c-3.89-1.95-8.71-1-13-0.956z" fill="#000100"/>
<path transform="translate(503 2.81)" d="m0 0c3.01-0.00217 6.01-0.0203 9.02-0.0393 16.7-0.0495 33.1 1.21 49.6 4.1 1 0.171 2 0.343 3.03 0.52 12.7 2.23 25.3 4.99 37.7 8.67 3.03 0.891 6.07 1.7 9.12 2.5 3.48 0.944 6.72 2.05 10 3.57 2.86 1.21 5.8 2.18 8.74 3.18 5.78 2.04 11.2 4.47 16.6 7.29 3.05 1.57 6.14 2.96 9.28 4.32 5.18 2.28 10.3 4.7 15.4 7.08v2c1.07 0.268 2.14 0.536 3.25 0.812 3.47 1.1 4.97 2.03 7.75 4.19 1.34 0.775 2.7 1.52 4.06 2.25 4.69 2.56 9.17 5.4 13.7 8.3 2.2 1.45 2.2 1.45 4.29 2.45v2c0.728 0.266 1.46 0.531 2.21 0.805 7.7 3.29 14.3 9.28 20.7 14.6 2.13 1.78 2.13 1.78 5.13 2.6 1.69 1.64 3.35 3.31 5 5 1.83 1.57 3.69 3.11 5.56 4.62 0.929 0.755 1.86 1.51 2.82 2.29 1.62 1.29 3.27 2.54 4.96 3.73l1.66 1.35v2c0.548 0.231 1.1 0.462 1.66 0.699 3 1.67 5.24 3.77 7.76 6.11 0.52 0.483 1.04 0.965 1.58 1.46 5.64 5.27 11.1 10.7 16.6 16.1 1.7 1.7 3.41 3.39 5.11 5.07 1.09 1.08 2.17 2.16 3.25 3.25 0.509 0.502 1.02 1 1.54 1.52 3.5 3.53 3.5 3.53 3.5 5.76 0.99 0.33 1.98 0.66 3 1 1.65 1.64 1.65 1.64 3.38 3.69 0.911 1.08 0.911 1.08 1.84 2.18 0.589 0.705 1.18 1.41 1.79 2.14 0.517 0.592 1.03 1.18 1.57 1.79 3.43 3.96 3.43 3.96 3.43 6.21h2c1.74 1.88 1.74 1.88 3.88 4.56 0.801 1 1.6 2 2.43 3.04 0.434 0.548 0.868 1.1 1.31 1.66 1.44 1.82 2.9 3.62 4.36 5.43 5.9 7.29 11.6 14.7 17 22.3 1.33 1.81 2.67 3.63 4 5.44 3.46 4.76 6.75 9.61 9.99 14.5 2.03 3.07 4.08 6.12 6.13 9.17 9.88 14.8 9.88 14.8 9.88 17.9h2c0.531 0.989 0.531 0.989 1.07 2 3.77 6.97 7.71 13.8 11.7 20.6 7.6 13 14.7 26.1 21.2 39.6 0.386 0.799 0.773 1.6 1.17 2.42 1.78 3.76 3.3 7.16 3.83 11.3h2c0.371 1.01 0.742 2.02 1.12 3.06 3.67 9.77 7.57 19.4 11.9 28.9 3.85 8.6 7.56 17.3 11.1 26 0.304 0.757 0.608 1.51 0.921 2.29 5.54 13.9 10.6 28 15.5 42.2 0.283 0.827 0.566 1.65 0.858 2.51 4.35 12.7 8.4 25.5 12 38.5 0.899 3.2 1.85 6.39 2.8 9.57 2.17 7.26 4.12 14.6 5.9 21.9 0.583 2.29 1.17 4.58 1.75 6.88 1.86 7.39 3.61 14.8 5.35 22.2 0.449 1.91 0.9 3.82 1.35 5.74 2.03 8.7 3.83 17.4 5.55 26.2 0.304 1.48 0.611 2.96 0.922 4.43 5.24 25.2 9.84 50.6 12.7 76.2 0.376 3.16 0.797 6.31 1.24 9.46 12.1 87.1 13.2 179 4.44 266-0.272 2.76-0.527 5.52-0.777 8.28-1.91 21.1-4.72 42-7.94 62.9-0.643 4.23-1.24 8.47-1.82 12.7-1.25 9.06-2.85 18-4.74 26.9-0.831 4.14-1.65 8.28-2.47 12.4-1.2 6.01-2.48 12-3.77 18-0.724 3.39-1.43 6.78-2.13 10.2-3.11 15-6.73 29.7-10.8 44.5-0.976 3.55-1.9 7.11-2.82 10.7-1.87 7.24-3.9 14.4-6.18 21.5-1.4 4.36-2.69 8.75-3.93 13.2-2.41 8.48-5.28 16.7-8.41 24.9-2.04 5.41-3.96 10.9-5.84 16.3-5.53 16-11.2 32.2-18.4 47.4-2.33 5-4.6 10-6.81 15.1-0.277 0.629-0.554 1.26-0.839 1.9-1.54 3.51-2.99 7.05-4.38 10.6-2.39 6.02-5.2 11.8-8.03 17.7l-1.53 3.17c-3.47 7.18-7.02 14.3-10.6 21.5-0.792 1.58-1.58 3.17-2.38 4.75l-1.62 3.25h-2c-0.157 0.815-0.157 0.815-0.316 1.65-0.848 2.92-2.16 5.33-3.63 7.99-0.583 1.07-1.17 2.14-1.77 3.24-0.612 1.11-1.22 2.22-1.85 3.37-0.616 1.13-1.23 2.25-1.87 3.41-1.52 2.78-3.04 5.56-4.57 8.34h-2c-0.206 0.804-0.412 1.61-0.625 2.44-1.49 3.85-3.42 6.79-5.75 10.2-1.57 2.32-2.98 4.67-4.38 7.09-3.65 6.16-7.87 11.9-12.1 17.7-1.63 2.26-3.22 4.54-4.81 6.83-3.72 5.32-7.53 10.6-11.4 15.8-0.739 1.01-0.739 1.01-1.49 2.05-1.62 2.22-3.25 4.43-4.88 6.64-0.786 1.08-0.786 1.08-1.59 2.18-0.494 0.666-0.988 1.33-1.5 2.02-0.441 0.6-0.883 1.2-1.34 1.82-0.397 0.427-0.793 0.854-1.2 1.29h-2c-0.33 1.32-0.66 2.64-1 4h-2c-0.245 0.553-0.49 1.11-0.742 1.68-4.35 8.03-11.7 16-18.3 22.3h-2c-0.263 0.579-0.526 1.16-0.797 1.75-3.34 6.24-8.84 10.8-14.2 15.2-1.54 1.74-3.02 3.52-4.5 5.31-2.24 2.52-4.91 4.53-7.5 6.69-0.914 1.07-1.81 2.15-2.69 3.25-3.33 4.01-7.26 7.06-11.3 10.3-3.12 2.56-6.05 5.26-8.99 8.02-4.52 4.21-9.22 7.96-14.3 11.5-2.7 1.91-5.3 3.91-7.92 5.93-14 10.5-28.8 20.1-43.8 29-0.95 0.576-1.9 1.15-2.88 1.75-5.68 3.4-11.5 6.52-17.4 9.5-0.649 0.329-1.3 0.659-1.97 0.998-3.91 1.94-7.85 3.58-12 5.07-2.38 0.892-4.66 1.96-6.95 3.06-13.9 6.38-28.8 10.6-43.4 14.9-1.59 0.475-3.17 0.959-4.76 1.45-51.1 15.9-112 14.6-164 1.28-0.723-0.181-1.45-0.361-2.19-0.547-20.1-5.02-40.1-11.3-58.7-20.4-2.44-1.18-4.89-2.33-7.34-3.47-16.5-7.69-16.5-7.69-23.6-12.2-3.9-2.39-8.03-4.34-12.2-6.32v-2c-0.784-0.186-1.57-0.371-2.38-0.562-5.12-2.03-9.19-5.21-13.6-8.44-1.64-1.15-3.29-2.3-4.94-3.44-7.97-5.59-15.8-11.3-23.4-17.4-1.99-1.59-3.99-3.15-6.02-4.7-0.576-0.438-1.15-0.876-1.74-1.33-1.12-0.848-2.24-1.69-3.36-2.53-3.47-2.64-6.48-5.51-9.55-8.59-1.82-1.67-3.65-3.34-5.48-5-6.2-5.64-12.2-11.5-18.1-17.4-1.7-1.7-3.41-3.39-5.11-5.07-1.09-1.08-2.17-2.16-3.25-3.25-0.509-0.502-1.02-1-1.54-1.52-3.5-3.53-3.5-3.53-3.5-5.76-0.99-0.33-1.98-0.66-3-1-1.54-1.53-1.54-1.53-3.19-3.5-2.47-2.92-4.98-5.8-7.56-8.62-5.39-6.05-10.3-12.5-15.2-18.9-2-2.57-4-5.13-6-7.69-0.457-0.588-0.913-1.18-1.38-1.78-2.48-3.18-2.48-3.18-5.24-6.11-1.86-1.92-3-4.12-4.38-6.42-2.75-3.87-5.6-7.68-8.44-11.5-0.855-1.16-0.855-1.16-1.73-2.35-0.52-0.701-1.04-1.4-1.58-2.13-1.26-2.03-1.26-2.03-1.75-4.22-0.253-0.892-0.253-0.892-0.51-1.8-0.99-0.33-1.98-0.66-3-1-1.36-2.15-1.36-2.15-2.75-4.94-1.99-3.8-4.05-7.34-6.56-10.8-4.22-5.88-7.85-12.1-11.5-18.3-1.13-1.9-2.27-3.79-3.42-5.69-2.27-3.74-4.51-7.5-6.74-11.3-0.361-0.609-0.721-1.22-1.09-1.84-6.62-11.3-12.2-22.9-17.8-34.8-0.942-1.98-1.94-3.93-2.95-5.87-1.18-2.51-1.18-2.51-1.18-5.51h-2c-0.221-0.564-0.443-1.13-0.671-1.71-1.02-2.6-2.05-5.19-3.08-7.79-0.348-0.887-0.696-1.77-1.05-2.69-1.88-4.72-3.88-9.29-6.2-13.8-1.84-3.71-3.4-7.55-4.99-11.4-0.528-1.26-0.528-1.26-1.07-2.55-3.73-8.95-7.28-18-10.7-27-1.52-4.07-3.13-8.09-4.85-12.1-2.57-6.09-4.64-12.3-6.67-18.6-1.2-3.67-2.43-7.32-3.66-11-11.9-35.4-23.2-71.5-30.3-108-0.828-4.22-1.76-8.42-2.69-12.6-2.15-9.72-4.14-19.4-5.77-29.2-0.459-2.77-0.927-5.54-1.39-8.3-3.36-20-6.31-40-9-60.1-0.203-1.5-0.203-1.5-0.411-3.03-0.98-7.31-1.82-14.6-2.59-22-0.117-1.11-0.117-1.11-0.236-2.24-10.5-101-10.4-207 7.24-311 0.339-2.15 0.672-4.29 1-6.44l0.473-3.06c0.414-2.75 0.816-5.5 1.21-8.25 1.26-8.71 2.62-17.3 4.57-25.9 0.788-3.52 1.5-7.06 2.2-10.6 3.6-18 7.55-35.9 12-53.7 0.473-1.89 0.938-3.78 1.4-5.66 5-20.3 10.5-40.5 17.1-60.3 0.326-0.993 0.653-1.99 0.989-3.01 9.02-27.4 19-54.3 30-81l1.4-3.38c0.762-1.84 1.53-3.67 2.3-5.5 1.06-2.54 2.12-5.09 3.17-7.63 3.25-7.84 6.54-15.6 10.4-23.1 1.86-3.69 3.62-7.42 5.37-11.2 3.33-7.09 6.62-14.1 10.8-20.7 2.05-3.45 3.79-7.04 5.56-10.6 2.39-4.87 4.83-9.57 7.8-14.1 1.24-1.94 2.35-3.93 3.45-5.95 2.82-5.15 5.92-10.1 9.02-15.1 1.63-2.56 1.63-2.56 2.67-4.72h2c0.25-0.878 0.5-1.76 0.758-2.66 1.3-3.49 2.86-5.84 5.12-8.78 3.06-4.07 5.73-8.08 8.12-12.6h2c0.27-0.739 0.54-1.48 0.818-2.24 1.13-2.65 2.37-4.65 4.09-6.95 0.574-0.774 1.15-1.55 1.74-2.35 0.612-0.814 1.22-1.63 1.86-2.47 0.633-0.849 1.27-1.7 1.92-2.57 1.85-2.48 3.72-4.96 5.58-7.43 0.465-0.62 0.931-1.24 1.41-1.88 9.78-13 20.1-25.6 31.2-37.5 4.13-4.44 8.12-8.97 11.9-13.7 2.39-2.75 4.84-5 7.66-7.29 2.96-2.55 5.65-5.37 8.38-8.16 7.49-7.65 15-14.9 23.5-21.4 3.33-2.59 3.33-2.59 6.43-5.45 1.62-1.6 3.31-2.96 5.13-4.34 0.691-0.526 1.38-1.05 2.09-1.59 1.1-0.833 1.1-0.833 2.23-1.68 1.53-1.17 3.07-2.33 4.6-3.5 1.14-0.868 1.14-0.868 2.31-1.75 2.02-1.54 4.04-3.1 6.05-4.66 0.58-0.45 1.16-0.901 1.76-1.36 1.56-1.21 3.11-2.43 4.67-3.64 2.51-1.85 5.05-3.45 7.73-5.02l3.12-2.31c3.87-2.81 8.01-5.02 12.2-7.26 3.32-1.79 6.52-3.73 9.73-5.72 14.7-9.02 30-16.2 45.9-22.7 1.19-0.492 1.19-0.492 2.41-0.993 15.1-6.19 30.5-10.7 46.4-14.5 1.6-0.396 3.2-0.814 4.8-1.24 7.89-2.08 15.8-3.35 23.9-4.42 1.23-0.169 2.46-0.338 3.72-0.512 3.59-0.483 7.18-0.935 10.8-1.36 1.38-0.164 1.38-0.164 2.79-0.332 9.53-0.959 19.1-0.854 28.7-0.853zm-120 62.2c-1.2 0.594-2.39 1.19-3.59 1.78-2.36 1.17-4.72 2.35-7.07 3.54-2.13 1.07-4.27 2.13-6.42 3.17-10.9 5.3-21 11.9-31.2 18.5-2.52 1.63-5.04 3.22-7.66 4.69-0.691 0.45-1.38 0.9-2.09 1.36v2c-0.534 0.0709-1.07 0.142-1.62 0.215-3.34 1.1-5.79 3.18-8.51 5.35-0.578 0.454-1.16 0.908-1.75 1.38-1.17 0.922-2.34 1.85-3.51 2.77-1.38 1.1-2.77 2.19-4.17 3.27-7.12 5.59-13.9 11.6-20.7 17.5-1.65 1.42-3.33 2.81-5.02 4.19-2.07 1.76-3.71 3.29-5.34 5.43-2.03 2.46-3.85 4.01-6.38 5.88v2c-0.99 0.33-1.98 0.66-3 1-2.71 2.38-2.71 2.38-5 5v2c-0.99 0.33-1.98 0.66-3 1-1.2 1.39-2.4 2.78-3.52 4.23-2.01 2.41-4.25 4.55-6.48 6.77-12.1 10.8-12.1 10.8-19 24-0.99 0.33-1.98 0.66-3 1-1.89 2.27-3.64 4.55-5.38 6.94-0.517 0.702-1.03 1.4-1.57 2.13-1.11 1.51-2.21 3.02-3.31 4.54-1.8 2.47-3.61 4.93-5.42 7.39-1.19 1.63-2.38 3.25-3.57 4.88-0.573 0.779-1.15 1.56-1.74 2.36-0.525 0.725-1.05 1.45-1.59 2.2-0.468 0.642-0.937 1.28-1.42 1.94-1.18 1.59-1.18 1.59-1 3.63h-2c-1.58 2.1-1.58 2.1-3.18 4.81-0.622 1.01-1.24 2.01-1.89 3.05l-1.93 3.14c-1.17 1.85-2.35 3.69-3.54 5.54-0.582 0.912-1.16 1.82-1.76 2.76-1.18 1.85-2.36 3.69-3.54 5.54-3.82 6-7.53 12-11.2 18.2-0.854 1.42-1.71 2.85-2.56 4.27-4.2 7.05-8.26 14.1-11.8 21.5-1.58 3.19-3.23 6.32-4.91 9.46-13 24.4-25.4 49.6-34.8 75.6-1.32 3.63-2.77 7.13-4.42 10.6-2.99 6.42-5.24 13.1-7.53 19.7-1.14 3.33-2.31 6.65-3.47 9.97-0.673 1.93-1.35 3.86-2.02 5.79-0.654 1.88-1.31 3.76-1.97 5.63-2.17 6.28-4.14 12.5-5.83 19-0.819 2.92-1.86 5.69-2.96 8.51-1.32 3.54-2.33 7.17-3.35 10.8-0.252 0.892-0.503 1.78-0.762 2.7-0.878 3.14-1.75 6.28-2.61 9.42l-1.01 3.64c-8.73 31.5-15.9 63.5-21.5 95.7-0.422 2.41-0.855 4.82-1.29 7.22-0.754 4.15-1.47 8.3-2.18 12.5l-0.448 2.64c-2.98 17.7-5.39 35.5-7.55 53.4-0.215 1.76-0.215 1.76-0.434 3.56-1.83 15.3-3.05 30.5-3.86 45.9-0.0773 1.45-0.155 2.91-0.232 4.36-0.0379 0.711-0.0758 1.42-0.115 2.15-0.229 4.17-0.521 8.33-0.885 12.5-6.88 79.1-2.19 161 9.53 240 0.159 1.07 0.318 2.14 0.482 3.24 0.479 3.19 0.966 6.38 1.46 9.57l0.475 3.13c2.24 14.6 4.95 29.2 7.7 43.7 0.461 2.44 0.918 4.88 1.38 7.32 0.299 1.58 0.597 3.17 0.896 4.75 0.2 1.07 0.2 1.07 0.404 2.17 0.904 4.76 2.02 9.42 3.22 14.1 0.451 1.94 0.896 3.89 1.33 5.84 2.58 11.4 5.24 22.7 8.49 34 0.952 3.32 1.8 6.65 2.62 10 1.45 5.84 3.05 11.6 4.74 17.4 0.298 1.02 0.597 2.04 0.904 3.09 3.43 11.6 7.14 23.2 10.9 34.7 0.261 0.799 0.522 1.6 0.791 2.42 3.21 9.82 6.76 19.5 10.5 29.1 2.07 5.29 4.1 10.6 6.07 15.9 2.22 6.03 4.6 11.9 7.34 17.7 2.1 4.65 3.91 9.42 5.76 14.2 1.37 3.29 2.86 6.43 4.48 9.6 1.07 2.12 2.09 4.26 3.09 6.42 4.03 8.65 8.2 17.2 12.7 25.6 2.4 4.47 4.7 8.97 6.93 13.5 2.39 4.84 4.99 9.44 7.82 14 2.76 4.7 5.11 9.62 7.49 14.5h2c0.102 0.552 0.204 1.1 0.309 1.67 0.848 2.86 2.18 5.04 3.75 7.57 0.922 1.5 0.922 1.5 1.86 3.04l1.96 3.15c1.27 2.06 2.54 4.12 3.8 6.18 0.564 0.912 1.13 1.82 1.71 2.76 1.1 1.79 2.17 3.61 3.19 5.45 0.702 1.07 0.702 1.07 1.42 2.16h2l0.766 2.14c3.32 7.7 8.91 14.6 14 21.2 1.13 1.5 2.18 3.06 3.23 4.62h2c0.385 1.09 0.385 1.09 0.777 2.21 1.28 2.92 2.78 5.01 4.79 7.48 3.36 4.15 3.36 4.15 4.44 6.31h2l0.781 1.71c4.18 7.84 11.1 14.5 17.1 20.9 2.1 2.35 2.1 2.35 4.1 5.35h2c0.263 0.579 0.526 1.16 0.797 1.75 2.73 5.1 7.04 9.43 11.5 13.1 2.69 2.19 2.69 2.19 4.69 5.19h2c0.249 0.584 0.498 1.17 0.754 1.77 1.42 2.54 2.98 4.02 5.18 5.92 0.69 0.602 1.38 1.2 2.09 1.82 2 1.68 2 1.68 4.97 2.49 0.683 1.32 1.35 2.66 2 4 1.73 1.79 1.73 1.79 3.75 3.44l2.15 1.81c0.694 0.578 1.39 1.16 2.1 1.75 0.886 0.773 0.886 0.773 1.79 1.56 2.71 2.62 2.71 2.62 6.21 3.44 0.33 0.99 0.66 1.98 1 3 1.56 1.44 1.56 1.44 3.44 2.69 0.617 0.437 1.23 0.874 1.87 1.32 1.65 1.16 1.65 1.16 3.69 0.988 0.33 0.99 0.66 1.98 1 3 1.96 1.4 3.97 2.72 6 4 1.6 1.15 3.2 2.29 4.79 3.45 10.1 7.32 20.5 14 31.2 20.4 0.916 0.554 0.916 0.554 1.85 1.12 3.64 2.18 7.33 4.15 11.1 6.01 1.29 0.644 2.59 1.29 3.88 1.94 0.678 0.339 1.36 0.678 2.06 1.03 2.01 1.01 4.02 2.02 6.03 3.04 10.4 5.25 10.4 5.25 21 10 0.703 0.302 1.41 0.603 2.13 0.914 14.5 6.02 29.3 10.1 44.6 13.6 2.04 0.472 4.07 1 6.09 1.54 15.2 3.82 31.6 5.71 47.2 5.99 1.01 0.0205 2.02 0.0409 3.06 0.062 19.4 0.335 38-0.843 57.1-3.94 1.39-0.224 1.39-0.224 2.8-0.452 14.3-2.44 28.1-6.09 41.8-10.7 2.29-0.769 4.58-1.52 6.88-2.27 9.79-3.24 19-7.12 28.3-11.7 0.827-0.398 1.65-0.796 2.51-1.21 1.94-0.937 3.88-1.89 5.81-2.86 0.662-0.331 1.32-0.662 2.01-1 4.62-2.33 9.09-4.85 13.5-7.61 2.21-1.32 2.21-1.32 5.1-2.76 12.7-6.4 24.9-14.9 36.1-23.6l2.99-2.28c9.88-7.53 19.5-15.3 28.7-23.6 2.1-1.9 4.25-3.71 6.43-5.52 0.949-0.846 1.9-1.69 2.88-2.56v-2c1.32-0.66 2.64-1.32 4-2v-2l1.73-0.75c2.62-1.44 4.41-3.13 6.52-5.25 0.706-0.701 1.41-1.4 2.14-2.12 1.83-1.72 1.83-1.72 1.61-3.88 1.32-0.66 2.64-1.32 4-2v-2c0.596-0.259 1.19-0.518 1.8-0.785 2.37-1.31 3.6-2.57 5.32-4.65 3.74-4.42 7.63-8.69 11.5-12.9 4.41-4.25 4.41-4.25 6.33-9.61 0.99-0.33 1.98-0.66 3-1 1.87-2.25 3.6-4.51 5.31-6.88 0.519-0.705 1.04-1.41 1.57-2.14 1.12-1.52 2.24-3.05 3.35-4.58 1.8-2.46 3.6-4.9 5.42-7.35 8.84-11.9 8.84-11.9 17.3-24.1 0.37-0.545 0.741-1.09 1.12-1.65 5.28-7.8 10.4-15.7 15.3-23.7 1.16-1.9 2.36-3.76 3.59-5.61v-3h2c2-3.5 4-7.01 5.98-10.5 0.677-1.19 1.36-2.39 2.04-3.58 0.979-1.71 1.95-3.43 2.92-5.15 0.587-1.03 1.17-2.06 1.78-3.13 1.5-2.6 1.5-2.6 1.29-5.64h2c5.14-10.1 10.1-20.4 15-30.6 2.5-5.24 5.04-10.4 7.69-15.6 5.86-11.6 10.7-23.8 15.2-36 1.11-2.76 1.11-2.76 2.59-5.68 1.62-3.28 2.83-6.56 4.02-10 1.23-3.57 2.49-7.05 4-10.5 1.6-3.78 2.82-7.57 4-11.5 2.6-8.5 2.6-8.5 4-12.1 1.8-4.58 3.18-9.31 4.61-14 1.01-3.29 2.08-6.49 3.31-9.71 2.08-5.45 3.68-11.1 5.33-16.6 0.346-1.17 0.693-2.35 1.05-3.56 9.59-32.7 17.4-65.8 23.7-99.3 0.444-2.37 0.896-4.74 1.35-7.11 7.42-38.7 12.1-77.7 15.9-117 0.119-1.24 0.239-2.49 0.362-3.77 6.64-71.7 5.45-145-1.8-217-0.263-2.66-0.509-5.33-0.75-7.99-0.786-8.65-1.66-17.2-2.98-25.8-0.463-3.28-0.842-6.55-1.18-9.84-1.01-9.75-2.44-19.4-4.09-29.1-0.195-1.15-0.195-1.15-0.393-2.33-5.41-32-11.6-64.1-19.9-95.5-0.404-1.55-0.808-3.09-1.21-4.64-1.05-4.02-2.12-8.04-3.18-12.1-0.587-2.22-1.17-4.44-1.74-6.66-0.35-1.34-0.7-2.67-1.05-4.01-0.303-1.16-0.606-2.33-0.918-3.52-0.805-3-0.805-3-1.83-5.39-1.64-4.16-2.74-8.47-3.94-12.8-2.18-7.72-4.5-15.4-7.12-22.9-0.734-2.22-1.46-4.45-2.19-6.67-0.713-2.05-1.46-4.08-2.23-6.11-1.24-3.28-2.42-6.58-3.57-9.9-4.75-13.7-9.55-27.4-15.7-40.5-1.66-3.63-3.14-7.33-4.64-11-3-7.36-6.24-14.6-9.67-21.7-1.03-2.16-2.04-4.33-3.05-6.51-4.92-10.5-10.2-20.9-15.7-31.1-1.25-2.35-2.47-4.72-3.69-7.09-5.67-11-11.8-21.6-18.3-32.1-1.82-3.02-3.56-6.08-5.29-9.15h-2l-0.32-1.7c-2.49-8.43-9.86-16.5-14.9-23.7-1.95-2.81-3.82-5.57-5.52-8.55-0.428-0.668-0.856-1.34-1.3-2.02h-2c-0.247-0.701-0.495-1.4-0.75-2.12-2.54-5.88-2.54-5.88-7.25-9.88-1.12-2.06-1.12-2.06-2-4h-2c-0.227-0.699-0.454-1.4-0.688-2.12-1.59-3.49-3.81-6.15-6.31-9.01-2.48-2.88-4.88-5.7-7-8.88h-2l-0.754-1.72c-1.96-3.59-4.77-6.33-7.54-9.33-1.73-1.88-3.45-3.77-5.17-5.67-6.32-6.96-12.8-13.7-19.4-20.4-1.6-1.6-3.19-3.21-4.78-4.82-5.72-5.75-11.5-11.1-17.9-16.2-2.39-1.92-4.65-3.92-6.91-6-7.91-7.9-7.91-7.9-17.5-11.9-0.33-0.99-0.66-1.98-1-3-2.17-1.63-2.17-1.63-4.88-3.19-4-2.45-7.81-5-11.6-7.81-4.54-3.34-9.19-6.25-14.1-9.03-2.61-1.48-5.18-2.99-7.75-4.54-10.6-6.33-21.4-11.7-32.7-16.5-1.74-0.771-3.44-1.62-5.14-2.47-3.38-1.67-6.86-3.01-10.4-4.3-1.05-0.389-1.05-0.389-2.13-0.785-1.44-0.53-2.88-1.06-4.32-1.58-1.84-0.678-3.67-1.38-5.5-2.08-9.98-3.75-20.2-6.3-30.5-8.68-1.19-0.277-1.19-0.277-2.41-0.559-62.1-14.2-131-7.49-189 21.6z" fill="#000100"/>
<path transform="translate(580,187)" d="m0 0c-2.03 15.8-10.6 28.2-21.5 39.4-2.62 2.57-2.62 2.57-4.54 5.64h-2v2h-2v2h-2c-0.66 1.32-1.32 2.64-2 4h-2c-0.262 0.599-0.523 1.2-0.793 1.82-1.29 2.33-2.46 3.46-4.52 5.12-4.07 3.44-7.86 7.11-11.6 10.9-0.58 0.575-1.16 1.15-1.76 1.74-3.02 2.94-3.02 2.94-5.31 6.44h-2c-0.267 0.587-0.534 1.17-0.809 1.78-1.56 2.92-3.63 5.11-5.85 7.54-1.55 1.76-1.55 1.76-2.34 4.68h-2c-0.275 0.561-0.549 1.12-0.832 1.7-1.22 2.41-2.53 4.76-3.86 7.11-3.79 6.9-7.05 14-10.3 21.2-3.06-1.33-4.82-2.66-6.84-5.31-0.755-0.989-0.755-0.989-1.53-2-0.519-0.703-1.04-1.41-1.57-2.13-0.535-0.721-1.07-1.44-1.62-2.18-3.99-5.5-7.11-11-9.44-17.4-0.315-0.777-0.629-1.55-0.953-2.36-3.25-8.58-2.68-15.5 0.684-24 6.77-14.1 20.5-23.4 34.3-29.6 0.849-0.407 1.7-0.815 2.57-1.23 4.84-2.28 9.75-4.3 14.7-6.2 19.2-7.32 38.3-16 54.1-29.4 1.53-1.14 1.53-1.14 3.53-1.14z" fill="#000100"/>
<path transform="translate(642 370)" d="m0 0c5.03 2.97 8.88 6.24 10.6 12 0.218 5.34-1.72 9.82-4.88 14.1-3.72 3.78-6.84 5.32-12.2 5.38-3.07-0.126-5.85-0.545-8.81-1.38v-2c-0.866-0.309-0.866-0.309-1.75-0.625-4.26-2.6-5.96-6.19-7.12-10.9-0.214-5.9 2.29-9.85 5.88-14.4 5.37-3.84 12.2-4.6 18.3-2.05z" fill="#000100"/>
<path transform="translate(667 338)" d="m0 0c4.25 3.37 6.86 6.14 7.63 11.6 0.0726 4.28-0.871 7.26-3.25 10.9h-2c-0.309 0.897-0.309 0.897-0.625 1.81-1.96 3.12-3.95 3.89-7.38 5.19-5.91 0.766-10.1-0.825-15-4-3.07-2.73-4.1-4.94-5-9-0.00934-5.29 0.616-9.77 4-14 6.28-5.8 14-6.85 21.6-2.5z" fill="#000100"/>
<path transform="translate(694 370)" d="m0 0c3.57 2.92 5.8 5.35 6.44 10.1 0.274 5.73-0.335 9.28-4.31 13.7-3.9 3.14-6.96 4.9-12 5-6.27-0.974-11.1-2.77-14.9-7.98-1.94-3.65-2.61-6.91-2.07-11 2.07-5.11 5.35-9.02 10-12 5.82-1.87 11.8-1.18 16.9 2.25z" fill="#000100"/>
<path transform="translate(334,1141)" d="m0 0c5.21 2.96 10.9 7.12 12.6 13.1 0.707 4.06 0.726 7.06-1.22 10.7-3.01 4.04-5.57 6.59-10.4 8.19-4.53 0.252-7.99 0.214-12-2-2.56-2.31-2.56-2.31-5-5-0.763-0.804-1.53-1.61-2.31-2.44-2.19-3.33-2.44-4.63-1.69-8.56 4.03-8.05 10.2-15.9 20-14z" fill="#000100"/>
<path transform="translate(304,1116)" d="m0 0c5.2 2.78 9.84 7.06 13 12 0.748 4.22 0.858 6.39-1.14 10.1-2.98 4.23-6.13 7.58-10.9 9.85-4.81 0.687-7.65 0.587-11.8-2.06-3.57-2.9-5.43-5.71-7.25-9.94-0.467-4.51-0.29-8.05 2-12 9.24-8.62 9.24-8.62 16-8z" fill="#000100"/>
<path transform="translate(338,1094)" d="m0 0c5.36 1.79 9.15 5.16 12 10 0.931 2.93 0.932 5.07 0 8-3.19 4.99-7.63 9.48-13 12-4.09 0.315-7.12-0.511-10.7-2.5-4.12-4.46-7.13-8.91-7.56-15.1 3.49-9.59 9.46-13.3 19.2-12.4z" fill="#000100"/>
<path transform="translate(358 1121)" d="m0 0c5.47 1.3 8.54 3.46 12.1 7.81 2.4 4.53 2.4 4.53 1.62 8.06-1.44 2.53-2.99 4.89-5 7h-2v2c-3.84 2.56-5.43 2.67-10 2-4.95-3.32-10.2-7.81-11.7-13.8 1.32-6.23 8.5-13.4 15-13.1z" fill="#000100"/>
</svg>
