{
  "accessors": [
    {
      "bufferView": 2,
      "componentType": 5126,
      "count": 55634,
      "max": [
        0.06950029730796814,
        0.057735200971364975,
        0.08485029637813568
      ],
      "min": [
        -0.07689549773931503,
        -0.057919301092624664,
        -0.08532469719648361
      ],
      "type": "VEC3"
    },
    {
      "bufferView": 2,
      "byteOffset": 667608,
      "componentType": 5126,
      "count": 55634,
      "max": [
        0.9999768733978271,
        0.9999943375587463,
        0.9999883770942688
      ],
      "min": [
        -0.9999470114707947,
        -0.9999856352806091,
        -1.0
      ],
      "type": "VEC3"
    },
    {
      "bufferView": 1,
      "componentType": 5126,
      "count": 55634,
      "max": [
        0.9991040229797363,
        0.9998999834060669
      ],
      "min": [
        6.791619671275839e-05,
        1.8487300621927716e-05
      ],
      "type": "VEC2"
    },
    {
      "bufferView": 0,
      "componentType": 5125,
      "count": 300000,
      "type": "SCALAR"
    }
  ],
  "asset": {
    "extras": {
      "author": "Emm (Scenario) (https://sketchfab.com/edemaistre)",
      "license": "CC-BY-4.0 (http://creativecommons.org/licenses/by/4.0/)",
      "source": "https://sketchfab.com/3d-models/gollum-weta-workshop-5de697f1593f4fc584563903ce09f717",
      "title": "Gollum (Weta Workshop)"
    },
    "generator": "Sketchfab-13.93.0",
    "version": "2.0"
  },
  "bufferViews": [
    {
      "buffer": 0,
      "byteLength": 1200000,
      "name": "floatBufferViews",
      "target": 34963
    },
    {
      "buffer": 0,
      "byteLength": 445072,
      "byteOffset": 1200000,
      "byteStride": 8,
      "name": "floatBufferViews",
      "target": 34962
    },
    {
      "buffer": 0,
      "byteLength": 1335216,
      "byteOffset": 1645072,
      "byteStride": 12,
      "name": "floatBufferViews",
      "target": 34962
    }
  ],
  "buffers": [
    {
      "byteLength": 2980288,
      "uri": "scene.bin"
    }
  ],
  "extensionsUsed": [
    "KHR_materials_unlit"
  ],
  "images": [
    {
      "uri": "textures/material_1_baseColor.png"
    }
  ],
  "materials": [
    {
      "doubleSided": true,
      "extensions": {
        "KHR_materials_unlit": {}
      },
      "name": "material_1",
      "pbrMetallicRoughness": {
        "baseColorTexture": {
          "index": 0
        },
        "metallicFactor": 0.0
      }
    }
  ],
  "meshes": [
    {
      "name": "Object_0",
      "primitives": [
        {
          "attributes": {
            "NORMAL": 1,
            "POSITION": 0,
            "TEXCOORD_0": 2
          },
          "indices": 3,
          "material": 0,
          "mode": 4
        }
      ]
    }
  ],
  "nodes": [
    {
      "children": [
        1
      ],
      "matrix": [
        1.0,
        0.0,
        0.0,
        0.0,
        0.0,
        2.220446049250313e-16,
        -1.0,
        0.0,
        0.0,
        1.0,
        2.220446049250313e-16,
        0.0,
        0.0,
        0.0,
        0.0,
        1.0
      ],
      "name": "Sketchfab_model"
    },
    {
      "children": [
        2
      ],
      "name": "output.obj.cleaner.materialmerger.gles"
    },
    {
      "mesh": 0,
      "name": "Object_2"
    }
  ],
  "samplers": [
    {
      "magFilter": 9729,
      "minFilter": 9987,
      "wrapS": 10497,
      "wrapT": 10497
    }
  ],
  "scene": 0,
  "scenes": [
    {
      "name": "Sketchfab_Scene",
      "nodes": [
        0
      ]
    }
  ],
  "textures": [
    {
      "sampler": 0,
      "source": 0
    }
  ]
}
